<?xml version="1.0" encoding="UTF-8"?><svg id="Layer_1" xmlns="http://www.w3.org/2000/svg" viewBox="0 0 850.39 566.93"><defs><style>.cls-1{fill:#010101;}</style></defs><polygon class="cls-1" points="328.26 114.38 254.46 118.81 254.36 104.14 328.15 99.71 328.26 114.38"/><g><path class="cls-1" d="m253.74,150.68l2.9-3.6c1.88,1.39,3.97,2.07,6.17,1.96,1.41-.07,2.16-.59,2.16-1.39v-.05c0-.78-.63-1.18-3.21-1.65-4.04-.72-7.17-1.7-7.19-5.57v-.05c-.02-3.49,2.75-6.14,7.3-6.36,3.22-.15,5.75.59,7.82,2.13l-2.6,3.8c-1.74-1.13-3.64-1.68-5.32-1.6-1.27.06-1.89.63-1.89,1.3v.05c0,.86.66,1.2,3.29,1.67,4.37.73,7.09,2,7.11,5.52v.05c.03,3.84-3.02,6.26-7.63,6.48-3.36.16-6.56-.74-8.91-2.69Z"/><path class="cls-1" d="m278.36,133.38l5.07-.24,8.2,18.54-5.64.27-1.4-3.29-7.32.35-1.33,3.42-5.53.26,7.95-19.31Zm4.68,11.3l-2.15-5.24-2.1,5.44,4.25-.2Z"/><path class="cls-1" d="m292.78,132.83l9.73-.46c2.38-.11,4.07.4,5.19,1.45.76.71,1.23,1.69,1.24,2.98v.05c.01,2.17-1.22,3.52-2.9,4.32,2.31.64,3.78,1.86,3.8,4.41v.05c.02,3.22-2.62,5.31-7.15,5.52l-9.78.46-.13-18.79Zm8.48,7.09c1.6-.08,2.49-.65,2.48-1.75v-.05c0-1.02-.82-1.57-2.4-1.5l-3.41.16.02,3.3,3.31-.16Zm.81,7.08c1.6-.07,2.52-.74,2.51-1.84v-.05c0-1.02-.82-1.65-2.59-1.57l-4.01.19.02,3.46,4.06-.19Z"/><path class="cls-1" d="m311.62,131.94l15.25-.72.03,4.43-10.05.48.02,2.85,9.1-.43.03,4.11-9.1.43.02,2.98,10.19-.48.03,4.43-15.39.73-.13-18.79Z"/><path class="cls-1" d="m329.15,131.12l5.55-.26,4.57,7.06,4.48-7.49,5.55-.26.13,18.79-5.23.25-.07-10.79-4.8,7.58h-.11s-4.87-7.07-4.87-7.07l.07,10.74-5.15.24-.13-18.79Z"/><path class="cls-1" d="m351.54,139.51v-.05c-.04-5.4,4.32-9.98,10.18-10.25,5.85-.28,10.22,3.84,10.25,9.24v.05c.04,5.4-4.32,9.98-10.18,10.25-5.85.28-10.22-3.84-10.25-9.23Zm15.07-.71v-.05c-.02-2.71-2.01-4.98-4.91-4.84-2.87.14-4.78,2.54-4.76,5.25v.05c.02,2.71,2.01,4.98,4.88,4.84,2.9-.14,4.81-2.54,4.79-5.25Z"/><path class="cls-1" d="m372.66,145.07l2.9-3.6c1.88,1.39,3.97,2.07,6.17,1.96,1.41-.07,2.16-.59,2.16-1.39v-.05c0-.78-.63-1.18-3.21-1.65-4.04-.72-7.17-1.7-7.19-5.57v-.05c-.02-3.49,2.75-6.14,7.3-6.36,3.22-.15,5.75.59,7.82,2.13l-2.6,3.8c-1.74-1.13-3.64-1.68-5.32-1.6-1.27.06-1.89.63-1.89,1.3v.05c0,.86.66,1.2,3.29,1.67,4.37.73,7.09,2,7.11,5.52v.05c.03,3.84-3.02,6.26-7.63,6.48-3.36.16-6.56-.74-8.91-2.69Z"/><path class="cls-1" d="m398.06,127.87l7.32-.35c6.77-.32,10.73,3.36,10.77,8.78v.05c.04,5.42-3.92,9.64-10.75,9.96l-7.21.34-.13-18.79Zm7.49,13.82c3.14-.15,5.22-1.97,5.2-5v-.05c-.02-3.01-2.12-4.65-5.26-4.5l-2.14.1.06,9.56,2.14-.1Z"/><path class="cls-1" d="m418.26,126.91l15.25-.72.03,4.43-10.05.48.02,2.85,9.1-.43.03,4.11-9.1.43.02,2.98,10.19-.48.03,4.43-15.39.73-.13-18.79Z"/></g><path class="cls-1" d="m296,240.83c-10.59.5-20.69-2.78-29.77-9.49l-14.01,17.38c11.32,9.45,26.79,13.77,43.01,13.01,22.24-1.05,36.94-12.76,36.81-31.29v-.26c-.12-16.98-13.24-23.1-34.33-26.64-12.71-2.25-15.86-3.92-15.89-8.07v-.26c-.02-3.24,2.97-5.97,9.11-6.26,8.11-.38,17.29,2.3,25.7,7.73l12.57-18.35c-10-7.44-22.19-11.01-37.75-10.27-21.98,1.04-35.36,13.85-35.25,30.7v.26c.13,18.66,15.21,23.39,34.73,26.88,12.45,2.27,15.47,4.2,15.49,7.95v.26c.03,3.89-3.62,6.39-10.42,6.71Zm302.17,5.06l-.15-21.38-49.18,2.32-.1-14.38,43.95-2.07-.14-19.83-43.95,2.07-.09-13.74,48.53-2.29-.15-21.38-73.64,3.47.62,90.71,74.29-3.5Zm-39.28,88.16l.33,47.95-38-46.17-6.24.29-38.45-86.92-12.74.6-.16-23.5,12.56-.59c22.76-1.07,39.29-13.13,39.15-34.51v-.26c-.14-20.09-15.13-31.18-38.28-30.08l-39.24,1.85.62,90.71,12.62-.6-36.69,89.17-20.99-29.11c11.35-5.33,18.74-14.88,18.64-28.75v-.26c-.06-8.94-2.86-15.81-8.26-20.74-2.95-2.82-6.7-5.01-11.32-6.47,20.64-3.83,33.47-17.47,33.29-43.09l-.34-50.28-25.77,1.22.35,51.06c.09,12.7-6.54,18.98-16.75,19.46-10.2.48-16.92-5.42-17.01-18.51l-.35-50.41-25.77,1.22.35,50.93c.14,20.04,8.38,32.06,22.38,36.97l-32.25,1.52.62,90.71,20.66-.98.6,88.05,25.51-1.2-.62-90.71-20.79.98-.17-24.81,10.86-.51h.26s18.63,26.59,18.63,26.59l29.3-1.38h0s.91-.04.91-.04c-16.82,8.34-27.84,25.14-27.71,44.02v.26c.18,26.05,21.25,45.93,49.5,44.59,28.25-1.33,49.3-23.46,49.12-49.5v-.26c-.17-24.69-19.11-43.82-45.14-44.62l4.72-12.13,35.32-1.67,6.78,15.88,8.63-.41.6,88.05,25.11-1.18-.34-49.76,39.45,47.92,22.24-1.05-.62-90.71-25.11,1.18Zm-185.9-35.76l-16.74.79-.15-21.77,16.61-.79c8.5-.4,13.76,2.98,13.81,10.11v.26c.05,6.61-4.89,10.99-13.53,11.4Zm88.36,85.73v.26c.09,13.09-9.12,24.67-23.11,25.33-13.87.65-23.49-10.3-23.58-23.39v-.26c-.09-13.09,9.12-24.67,22.98-25.32,14-.66,23.62,10.29,23.71,23.38Zm13.88-201.95c9.16-.43,14.68,3.46,14.73,11.23v.26c.05,7.13-5.41,12.05-14.44,12.48l-12.03.57-.16-23.97,11.9-.56Zm-21.08,123.8l10.16-26.28,10.38,25.31-20.54.97Zm-150.39,109.83c-12.82.6-21.92-9.6-22.01-23.2v-.26c-.09-13.22,8.86-24.4,21.68-25.01,8.76-.41,14.81,3.45,20.09,9.68l19-15.55c-8.19-10.76-20.27-17.97-38.98-17.09-27.73,1.31-48.12,23.01-47.94,49.45v.26c.19,27.09,21.38,45.92,47.54,44.69,20.27-.96,31.86-10.19,40.41-22.39l-19.19-12.58c-5.45,6.87-11.04,11.54-20.59,11.99Z"/><polygon class="cls-1" points="598.17 440.35 468.74 448.12 468.95 467.22 598.17 459.46 598.17 440.35"/></svg>