<?xml version="1.0" standalone="no"?>
<!DOCTYPE svg PUBLIC "-//W3C//DTD SVG 20010904//EN"
 "http://www.w3.org/TR/2001/REC-SVG-20010904/DTD/svg10.dtd">
<svg version="1.0" xmlns="http://www.w3.org/2000/svg"
 width="512.000000pt" height="512.000000pt" viewBox="0 0 512.000000 512.000000"
 preserveAspectRatio="xMidYMid meet">

<g transform="translate(0.000000,512.000000) scale(0.100000,-0.100000)"
fill="#000000" stroke="none">
<path d="M1202 4184 c-142 -38 -263 -161 -308 -314 -23 -75 -22 -209 0 -285
26 -86 49 -126 110 -192 233 -252 621 -144 723 200 30 103 14 268 -38 368 -27
55 -123 154 -177 184 -95 53 -206 67 -310 39z"/>
<path d="M3510 4184 c-122 -33 -217 -116 -278 -242 -91 -190 -53 -421 91 -562
238 -233 617 -122 709 209 97 350 -194 683 -522 595z"/>
<path d="M109 4157 c-29 -16 -54 -40 -74 -72 -26 -42 -30 -58 -29 -114 1 -59
18 -111 163 -506 93 -253 173 -454 188 -473 20 -26 76 -59 259 -148 l234 -114
0 -476 c0 -449 1 -476 18 -469 9 4 65 9 123 12 190 10 359 -46 509 -166 33
-27 35 -27 82 14 22 19 69 49 104 67 l64 33 0 125 c0 69 3 182 7 251 l6 126
35 -39 c20 -22 49 -46 65 -55 34 -17 687 -133 752 -133 55 0 92 14 129 48 96
90 86 260 -20 335 -36 25 -73 34 -360 83 -303 53 -320 57 -341 82 -12 15 -115
137 -230 271 -146 172 -220 251 -248 265 -35 18 -61 21 -205 24 -149 3 -171 1
-220 -17 l-55 -21 -205 101 -205 100 -144 394 c-80 217 -156 408 -169 425 -54
69 -153 89 -233 47z"/>
<path d="M2425 4164 c-47 -26 -76 -56 -96 -99 -38 -83 -32 -107 140 -578 87
-239 166 -447 174 -463 26 -50 57 -70 290 -185 l227 -112 0 -463 0 -463 48 -7
c119 -17 272 -83 350 -150 22 -19 43 -34 47 -34 4 0 25 15 48 34 91 74 236
135 360 151 l47 6 0 227 0 226 53 -51 c28 -28 68 -56 87 -62 57 -17 682 -121
731 -121 150 0 240 191 153 326 -51 78 -56 80 -519 159 -179 30 -213 39 -230
58 -11 12 -115 135 -232 273 -147 173 -224 256 -250 269 -32 16 -65 20 -203
23 -147 3 -173 1 -224 -17 l-57 -20 -202 100 c-111 55 -203 102 -205 103 -1 2
-65 175 -143 386 -77 211 -147 396 -157 412 -43 73 -166 111 -237 72z"/>
<path d="M1950 1524 c-91 -19 -173 -64 -258 -139 -127 -113 -192 -112 -332 9
-80 70 -144 102 -244 122 -150 31 -307 -17 -433 -130 -128 -116 -223 -125
-337 -32 -58 47 -79 56 -127 56 -128 0 -208 -144 -148 -267 41 -86 191 -186
317 -212 172 -36 337 14 484 146 61 54 113 83 153 83 38 0 94 -29 147 -76 121
-105 217 -144 358 -145 140 0 253 45 361 146 114 106 198 108 311 7 127 -113
224 -154 368 -154 143 0 244 42 364 152 67 60 90 70 157 70 60 0 93 -16 162
-78 97 -88 188 -128 314 -139 141 -12 272 34 391 136 85 73 102 82 160 82 63
1 97 -14 152 -65 67 -63 146 -112 220 -136 88 -29 221 -30 304 -1 117 41 224
122 257 196 62 135 -46 287 -184 261 -17 -3 -57 -26 -87 -51 -60 -49 -119 -68
-176 -55 -43 10 -70 27 -139 90 -197 179 -496 172 -703 -16 -68 -61 -95 -74
-157 -74 -61 0 -83 10 -155 74 -124 108 -249 153 -396 143 -129 -9 -225 -51
-325 -143 -61 -56 -103 -76 -158 -77 -58 -1 -100 21 -173 89 -71 65 -181 120
-268 134 -81 12 -99 12 -180 -6z"/>
</g>
</svg>
