<?xml version="1.0" encoding="iso-8859-1"?>
<!-- Uploaded to: SVG Repo, www.svgrepo.com, Generator: SVG Repo Mixer Tools -->
<!DOCTYPE svg PUBLIC "-//W3C//DTD SVG 1.1//EN" "http://www.w3.org/Graphics/SVG/1.1/DTD/svg11.dtd">
<svg fill="#000000" version="1.1" id="Capa_1" xmlns="http://www.w3.org/2000/svg" xmlns:xlink="http://www.w3.org/1999/xlink" 
	 width="800px" height="800px" viewBox="0 0 53.229 53.229"
	 xml:space="preserve">
<g>
	<g>
		<path d="M34.124,42.834c3.909,0,7.652-0.853,10.866-2.472l6.715,4.138c0.161,0.1,0.343,0.149,0.524,0.149
			c0.216,0,0.432-0.07,0.61-0.208c0.33-0.254,0.467-0.686,0.347-1.083l-2.348-7.696c1.566-2.061,2.391-4.374,2.391-6.725
			c0-7.39-7.847-13.4-17.943-13.842c-3.472-4.026-9.616-6.515-16.179-6.515C8.571,8.58,0,14.814,0,22.476
			c0,2.35,0.824,4.663,2.389,6.723l-2.346,7.695c-0.121,0.398,0.017,0.83,0.346,1.084C0.568,38.117,0.784,38.186,1,38.186
			c0.181,0,0.363-0.049,0.525-0.148l6.715-4.138c2.873,1.446,6.211,2.274,9.714,2.426C21.43,40.348,27.568,42.834,34.124,42.834z
			 M51.23,28.938c0,2.045-0.785,4.076-2.271,5.878c-0.213,0.259-0.283,0.606-0.185,0.928l1.728,5.666l-4.945-3.047
			c-0.159-0.099-0.342-0.149-0.523-0.149c-0.163,0-0.326,0.041-0.476,0.121c-3.035,1.637-6.643,2.5-10.433,2.5
			c-6.155,0-11.87-2.342-14.915-6.111c-1.434-1.774-2.191-3.774-2.191-5.785c0-6.559,7.674-11.895,17.106-11.895
			c0.117,0,0.232,0.006,0.347,0.012l0.308,0.012C44.002,17.311,51.23,22.526,51.23,28.938z"/>
		<path d="M30.638,29.846c0,1.922,1.563,3.484,3.483,3.484c1.921,0,3.485-1.562,3.485-3.484c0-1.92-1.563-3.482-3.485-3.482
			C32.202,26.363,30.638,27.926,30.638,29.846z M35.607,29.846c0,0.818-0.666,1.484-1.485,1.484c-0.818,0-1.483-0.666-1.483-1.484
			c0-0.817,0.665-1.482,1.483-1.482C34.941,28.363,35.607,29.028,35.607,29.846z"/>
		<path d="M24.617,26.363c-1.921,0-3.484,1.562-3.484,3.482c0,1.922,1.563,3.484,3.484,3.484c1.921,0,3.486-1.562,3.486-3.484
			C28.103,27.926,26.54,26.363,24.617,26.363z M24.617,31.33c-0.818,0-1.484-0.666-1.484-1.484c0-0.817,0.666-1.482,1.484-1.482
			c0.819,0,1.485,0.666,1.485,1.482C26.103,30.664,25.437,31.33,24.617,31.33z"/>
		<path d="M43.627,33.33c1.921,0,3.485-1.562,3.485-3.484c0-1.92-1.563-3.482-3.485-3.482c-1.921,0-3.482,1.562-3.482,3.482
			C40.144,31.768,41.707,33.33,43.627,33.33z M43.627,28.363c0.819,0,1.485,0.666,1.485,1.482c0,0.818-0.666,1.484-1.485,1.484
			c-0.817,0-1.482-0.666-1.482-1.484C42.144,29.028,42.81,28.363,43.627,28.363z"/>
	</g>
</g>
</svg>