<?xml version="1.0" encoding="UTF-8" standalone="no"?>
<svg
   id="Layer_1"
   viewBox="0 0 670.39 566.93"
   version="1.1"
   sodipodi:docname="LogoSuperacion.svg"
   width="670.39001"
   height="566.92999"
   inkscape:version="1.2.2 (732a01da63, 2022-12-09, custom)"
   xmlns:inkscape="http://www.inkscape.org/namespaces/inkscape"
   xmlns:sodipodi="http://sodipodi.sourceforge.net/DTD/sodipodi-0.dtd"
   xmlns="http://www.w3.org/2000/svg"
   xmlns:svg="http://www.w3.org/2000/svg">
  <sodipodi:namedview
     id="namedview49"
     pagecolor="#ffffff"
     bordercolor="#000000"
     borderopacity="0.25"
     inkscape:showpageshadow="2"
     inkscape:pageopacity="0.0"
     inkscape:pagecheckerboard="0"
     inkscape:deskcolor="#d1d1d1"
     showgrid="false"
     inkscape:zoom="1.3899423"
     inkscape:cx="296.41517"
     inkscape:cy="219.43356"
     inkscape:window-width="1920"
     inkscape:window-height="991"
     inkscape:window-x="0"
     inkscape:window-y="0"
     inkscape:window-maximized="1"
     inkscape:current-layer="Layer_1" />
  <defs
     id="defs20">
    <style
       id="style18">.cls-1{fill:#010101;}</style>
  </defs>
  <polygon
     class="cls-1"
     points="254.46,118.81 254.36,104.14 328.15,99.71 328.26,114.38 "
     id="polygon22"
     transform="matrix(1.5,0,0,1.4999592,-305.77778,-143.12045)"
     style="stroke-width:0.666674" />
  <g
     id="g42"
     transform="matrix(1.5,0,0,1.4999592,-305.77778,-143.12045)"
     style="stroke-width:0.666674">
    <path
       class="cls-1"
       d="m 253.74,150.68 2.9,-3.6 c 1.88,1.39 3.97,2.07 6.17,1.96 1.41,-0.07 2.16,-0.59 2.16,-1.39 v -0.05 c 0,-0.78 -0.63,-1.18 -3.21,-1.65 -4.04,-0.72 -7.17,-1.7 -7.19,-5.57 v -0.05 c -0.02,-3.49 2.75,-6.14 7.3,-6.36 3.22,-0.15 5.75,0.59 7.82,2.13 l -2.6,3.8 c -1.74,-1.13 -3.64,-1.68 -5.32,-1.6 -1.27,0.06 -1.89,0.63 -1.89,1.3 v 0.05 c 0,0.86 0.66,1.2 3.29,1.67 4.37,0.73 7.09,2 7.11,5.52 v 0.05 c 0.03,3.84 -3.02,6.26 -7.63,6.48 -3.36,0.16 -6.56,-0.74 -8.91,-2.69 z"
       id="path24"
       style="stroke-width:0.666674" />
    <path
       class="cls-1"
       d="m 278.36,133.38 5.07,-0.24 8.2,18.54 -5.64,0.27 -1.4,-3.29 -7.32,0.35 -1.33,3.42 -5.53,0.26 z m 4.68,11.3 -2.15,-5.24 -2.1,5.44 z"
       id="path26"
       style="stroke-width:0.666674" />
    <path
       class="cls-1"
       d="m 292.78,132.83 9.73,-0.46 c 2.38,-0.11 4.07,0.4 5.19,1.45 0.76,0.71 1.23,1.69 1.24,2.98 v 0.05 c 0.01,2.17 -1.22,3.52 -2.9,4.32 2.31,0.64 3.78,1.86 3.8,4.41 v 0.05 c 0.02,3.22 -2.62,5.31 -7.15,5.52 l -9.78,0.46 -0.13,-18.79 z m 8.48,7.09 c 1.6,-0.08 2.49,-0.65 2.48,-1.75 v -0.05 c 0,-1.02 -0.82,-1.57 -2.4,-1.5 l -3.41,0.16 0.02,3.3 z m 0.81,7.08 c 1.6,-0.07 2.52,-0.74 2.51,-1.84 v -0.05 c 0,-1.02 -0.82,-1.65 -2.59,-1.57 l -4.01,0.19 0.02,3.46 4.06,-0.19 z"
       id="path28"
       style="stroke-width:0.666674" />
    <path
       class="cls-1"
       d="m 311.62,131.94 15.25,-0.72 0.03,4.43 -10.05,0.48 0.02,2.85 9.1,-0.43 0.03,4.11 -9.1,0.43 0.02,2.98 10.19,-0.48 0.03,4.43 -15.39,0.73 -0.13,-18.79 z"
       id="path30"
       style="stroke-width:0.666674" />
    <path
       class="cls-1"
       d="m 329.15,131.12 5.55,-0.26 4.57,7.06 4.48,-7.49 5.55,-0.26 0.13,18.79 -5.23,0.25 -0.07,-10.79 -4.8,7.58 h -0.11 c 0,0 -4.87,-7.07 -4.87,-7.07 l 0.07,10.74 -5.15,0.24 -0.13,-18.79 z"
       id="path32"
       style="stroke-width:0.666674" />
    <path
       class="cls-1"
       d="m 351.54,139.51 v -0.05 c -0.04,-5.4 4.32,-9.98 10.18,-10.25 5.85,-0.28 10.22,3.84 10.25,9.24 v 0.05 c 0.04,5.4 -4.32,9.98 -10.18,10.25 -5.85,0.28 -10.22,-3.84 -10.25,-9.23 z m 15.07,-0.71 v -0.05 c -0.02,-2.71 -2.01,-4.98 -4.91,-4.84 -2.87,0.14 -4.78,2.54 -4.76,5.25 v 0.05 c 0.02,2.71 2.01,4.98 4.88,4.84 2.9,-0.14 4.81,-2.54 4.79,-5.25 z"
       id="path34"
       style="stroke-width:0.666674" />
    <path
       class="cls-1"
       d="m 372.66,145.07 2.9,-3.6 c 1.88,1.39 3.97,2.07 6.17,1.96 1.41,-0.07 2.16,-0.59 2.16,-1.39 v -0.05 c 0,-0.78 -0.63,-1.18 -3.21,-1.65 -4.04,-0.72 -7.17,-1.7 -7.19,-5.57 v -0.05 c -0.02,-3.49 2.75,-6.14 7.3,-6.36 3.22,-0.15 5.75,0.59 7.82,2.13 l -2.6,3.8 c -1.74,-1.13 -3.64,-1.68 -5.32,-1.6 -1.27,0.06 -1.89,0.63 -1.89,1.3 v 0.05 c 0,0.86 0.66,1.2 3.29,1.67 4.37,0.73 7.09,2 7.11,5.52 v 0.05 c 0.03,3.84 -3.02,6.26 -7.63,6.48 -3.36,0.16 -6.56,-0.74 -8.91,-2.69 z"
       id="path36"
       style="stroke-width:0.666674" />
    <path
       class="cls-1"
       d="m 398.06,127.87 7.32,-0.35 c 6.77,-0.32 10.73,3.36 10.77,8.78 v 0.05 c 0.04,5.42 -3.92,9.64 -10.75,9.96 l -7.21,0.34 -0.13,-18.79 z m 7.49,13.82 c 3.14,-0.15 5.22,-1.97 5.2,-5 v -0.05 c -0.02,-3.01 -2.12,-4.65 -5.26,-4.5 l -2.14,0.1 0.06,9.56 2.14,-0.1 z"
       id="path38"
       style="stroke-width:0.666674" />
    <path
       class="cls-1"
       d="m 418.26,126.91 15.25,-0.72 0.03,4.43 -10.05,0.48 0.02,2.85 9.1,-0.43 0.03,4.11 -9.1,0.43 0.02,2.98 10.19,-0.48 0.03,4.43 -15.39,0.73 -0.13,-18.79 z"
       id="path40"
       style="stroke-width:0.666674" />
  </g>
  <path
     class="cls-1"
     d="m 138.22222,218.11471 c -15.885,0.74997 -31.035,-4.16988 -44.655,-14.23461 l -21.015,26.06929 c 16.98,14.17462 40.185,20.65443 64.515,19.51447 33.36,-1.57496 55.41,-19.13948 55.215,-46.93373 v -0.38998 c -0.18,-25.46931 -19.86,-34.64905 -51.495,-39.95891 -19.065,-3.37491 -23.79,-5.87985 -23.835,-12.10467 v -0.39 c -0.03,-4.85986 4.455,-8.95475 13.665,-9.38973 12.165,-0.56999 25.935,3.4499 38.55,11.59467 l 18.855,-27.52425 c -15,-11.15969 -33.285,-16.51455 -56.625,-15.40457 -32.97,1.55995 -53.04,20.77443 -52.875,46.04874 v 0.39 c 0.195,27.98923 22.815,35.08403 52.095,40.3189 18.675,3.4049 23.205,6.29983 23.235,11.92466 v 0.39 c 0.045,5.83484 -5.43,9.58474 -15.63,10.06473 z m 453.255,7.58979 -0.225,-32.06912 -73.77,3.47991 -0.15,-21.56942 65.925,-3.10491 -0.21,-29.7442 -65.925,3.10492 -0.135,-20.60943 72.795,-3.43491 -0.225,-32.069144 -110.46,5.20487 0.93,136.061304 111.435,-5.24987 z m -58.92,132.23639 0.495,71.92306 -57,-69.25311 -9.36,0.43499 -57.675,-130.37645 -19.11,0.89996 -0.24,-35.24904 18.84,-0.88499 c 34.14,-1.60494 58.935,-19.69444 58.725,-51.76358 v -0.38998 c -0.21,-30.13417 -22.695,-46.768734 -57.42,-45.11877 l -58.86,2.77493 0.93,136.06127 18.93,-0.89995 -55.035,133.75133 -31.485,-43.66379 c 17.025,-7.99477 28.11,-22.31941 27.96,-43.12383 v -0.38998 c -0.09,-13.40963 -4.29,-23.71436 -12.39,-31.10916 -4.425,-4.22988 -10.05,-7.51478 -16.98,-9.70473 30.96,-5.74484 50.205,-26.20429 49.935,-64.63324 l -0.51,-75.41795 -38.655,1.82995 0.525,76.58791 c 0.135,19.04949 -9.81,28.46923 -25.125,29.18921 -15.3,0.71999 -25.38,-8.12978 -25.515,-27.76424 l -0.525,-75.61294 -38.655,1.82995 0.525,76.39291 c 0.21,30.05919 12.57,48.0887 33.57,55.4535 l -48.375,2.27993 0.93,136.0613 30.99,-1.46996 0.9,132.07139 38.265,-1.79993 -0.93,-136.0613 -31.185,1.46995 -0.255,-37.21398 16.29,-0.76498 h 0.39 c 0,0 27.945,39.88392 27.945,39.88392 l 43.95,-2.06995 v 0 c 0,0 1.365,-0.06 1.365,-0.06 -25.23,12.50966 -41.76,37.70898 -41.565,66.0282 v 0.39 c 0.27,39.07392 31.875,68.89312 74.25,66.88318 42.375,-1.99496 73.95,-35.18905 73.68,-74.248 v -0.39 c -0.255,-37.03398 -28.665,-65.72819 -67.71,-66.92816 l 7.08,-18.1945 52.98,-2.50494 10.17,23.81935 12.945,-0.61498 0.9,132.07142 37.665,-1.76997 -0.51,-74.63798 59.175,71.87804 33.36,-1.57493 -0.93,-136.0613 -37.665,1.76995 z m -278.85,-53.63853 -25.11,1.18497 -0.225,-32.65412 24.915,-1.18495 c 12.75,-0.59998 20.64,4.46988 20.715,15.16459 v 0.38998 c 0.075,9.91474 -7.335,16.48456 -20.295,17.09953 z m 132.54,128.59151 v 0.38998 c 0.135,19.63446 -13.68,37.00399 -34.665,37.99396 -20.805,0.97498 -35.235,-15.44956 -35.37,-35.08404 v -0.38998 c -0.135,-19.63447 13.68,-37.00399 34.47,-37.97896 21,-0.98999 35.43,15.43457 35.565,35.06904 z m 20.82,-302.91675 c 13.74,-0.64499 22.02,5.18985 22.095,16.84453 v 0.38999 c 0.075,10.69471 -8.115,18.07452 -21.66,18.7195 l -18.045,0.85497 -0.24,-35.95401 17.85,-0.83999 z m -31.62,185.69494 15.24,-39.41892 15.57,37.96396 z m -225.585,164.74051 c -19.23,0.89997 -32.88,-14.39961 -33.015,-34.79904 v -0.39 c -0.135,-19.82945 13.29,-36.599 32.52,-37.51397 13.14,-0.61499 22.215,5.17485 30.135,14.5196 l 28.5,-23.32438 c -12.285,-16.13954 -30.405,-26.95426 -58.47,-25.63431 -41.595,1.96497 -72.18,34.51408 -71.91,74.17301 v 0.38998 c 0.285,40.6339 32.07,68.87812 71.31,67.03318 30.405,-1.43996 47.79,-15.2846 60.615,-33.58409 l -28.785,-18.86949 c -8.175,10.30471 -16.56,17.30953 -30.885,17.98452 z"
     id="path44"
     style="stroke-width:0.999997" />
  <polygon
     class="cls-1"
     points="468.74,448.12 468.95,467.22 598.17,459.46 598.17,440.35 "
     id="polygon46"
     transform="matrix(1.5,0,0,1.4999592,-305.77778,-143.12045)"
     style="stroke-width:0.666674" />
</svg>
