<?xml version="1.0" encoding="UTF-8"?><svg id="Layer_1" xmlns="http://www.w3.org/2000/svg" viewBox="0 0 850.39 566.93"><defs><style>.cls-1{fill:#231f20;}</style></defs><path class="cls-1" d="m219.68,242.68h23.29l12.11,36.81,12.11-36.81h22.94l-25.16,63.48h-20.15l-25.16-63.48Z"/><path class="cls-1" d="m428.28,274.48v-.23c0-17.94,14.67-32.96,34.94-32.96s34.71,14.79,34.71,32.73v.23c0,17.94-14.68,32.96-34.94,32.96s-34.71-14.79-34.71-32.73Zm48.1,0v-.23c0-7.69-5.59-14.21-13.39-14.21s-13.16,6.41-13.16,13.98v.23c0,7.69,5.59,14.21,13.39,14.21s13.16-6.41,13.16-13.98Z"/><path class="cls-1" d="m496.65,242.68h23.29l12.11,36.81,12.11-36.81h22.94l-25.16,63.48h-20.15l-25.16-63.48Z"/><path class="cls-1" d="m334.75,297.08l22.13-31.28v-23.11h-22.13v34.13c0,6.87-3.96,10.6-9.2,10.6s-8.97-3.73-8.97-10.6v-34.13h-22.13v41.23c0,14.33,8.04,23.18,21.43,23.18,8.97,0,14.79-4.78,18.87-10.02Z"/><polygon class="cls-1" points="408.83 267.96 430.72 242.68 405.68 242.68 388.56 263.77 388.56 221.27 379.36 234.25 366.43 252.48 366.43 305.69 388.56 305.69 388.56 290.9 394.27 284.26 406.96 305.69 431.31 305.69 408.83 267.96"/><path class="cls-1" d="m583.27,242.68h20.89l26.56,63.48h-22.87l-3.33-8.46h-22.06l-3.24,8.46h-22.51l26.56-63.48Zm16.03,40.07l-5.76-15.31-5.76,15.31h11.52Z"/><path class="cls-1" d="m329.44,333.48v10.04h-2.77v-10.04h-3.83v-2.56h10.44v2.56h-3.83Z"/><path class="cls-1" d="m347.73,343.53l-2.7-4.03h-2.18v4.03h-2.77v-12.6h5.76c1.5,0,2.67.37,3.5,1.1.83.73,1.25,1.75,1.25,3.06v.04c0,1.02-.25,1.85-.75,2.49-.5.64-1.15,1.11-1.95,1.41l3.08,4.5h-3.24Zm.05-8.3c0-.6-.19-1.05-.58-1.35-.38-.3-.92-.45-1.6-.45h-2.75v3.62h2.81c.68,0,1.21-.16,1.58-.49.37-.32.55-.76.55-1.3v-.04Z"/><path class="cls-1" d="m367.15,343.53l-1.15-2.83h-5.33l-1.15,2.83h-2.83l5.4-12.69h2.56l5.4,12.69h-2.9Zm-3.82-9.36l-1.67,4.09h3.35l-1.67-4.09Z"/><path class="cls-1" d="m376.8,343.53v-12.6h2.77v12.6h-2.77Z"/><path class="cls-1" d="m396.24,343.53l-6.1-8.01v8.01h-2.74v-12.6h2.56l5.9,7.76v-7.76h2.74v12.6h-2.36Z"/><path class="cls-1" d="m406.42,343.53v-12.6h2.77v12.6h-2.77Z"/><path class="cls-1" d="m425.86,343.53l-6.1-8.01v8.01h-2.74v-12.6h2.56l5.9,7.76v-7.76h2.74v12.6h-2.36Z"/><path class="cls-1" d="m445.06,343.16c-.89.39-1.92.58-3.07.58-.98,0-1.88-.16-2.69-.49-.81-.32-1.51-.77-2.09-1.35s-1.04-1.26-1.36-2.05c-.32-.79-.49-1.66-.49-2.59v-.04c0-.9.17-1.74.5-2.53s.79-1.48,1.38-2.07c.59-.59,1.28-1.06,2.09-1.4s1.69-.51,2.65-.51c.56,0,1.08.04,1.54.12s.89.19,1.29.33c.4.14.77.32,1.12.54s.68.46,1.01.74l-1.75,2.11c-.24-.2-.48-.38-.72-.54-.24-.16-.49-.29-.75-.4s-.54-.19-.84-.25c-.3-.06-.63-.09-.99-.09-.5,0-.97.11-1.41.32-.44.21-.82.49-1.15.85-.33.35-.59.77-.77,1.24-.19.48-.28.98-.28,1.52v.04c0,.58.09,1.11.28,1.6s.45.91.79,1.27c.34.36.74.64,1.21.84.46.2.97.3,1.54.3,1.03,0,1.9-.25,2.61-.76v-1.81h-2.79v-2.39h5.47v5.47c-.65.55-1.42,1.02-2.31,1.41Z"/><path class="cls-1" d="m474.86,342.43c-.35.28-.73.51-1.14.71-.41.2-.87.35-1.36.45-.49.1-1.04.15-1.66.15-.92,0-1.78-.17-2.57-.5s-1.48-.79-2.05-1.38-1.03-1.27-1.35-2.06c-.32-.79-.49-1.64-.49-2.54v-.04c0-.9.16-1.74.49-2.53.32-.79.77-1.48,1.35-2.07.58-.59,1.27-1.06,2.07-1.4.8-.34,1.69-.51,2.66-.51.59,0,1.12.05,1.61.14.49.1.93.23,1.32.4.4.17.76.37,1.1.61s.65.5.94.79l-1.76,2.03c-.49-.44-.99-.79-1.5-1.04-.51-.25-1.08-.38-1.72-.38-.53,0-1.02.1-1.47.31s-.84.49-1.16.85c-.32.36-.58.78-.76,1.25-.18.47-.27.98-.27,1.52v.04c0,.54.09,1.05.27,1.53.18.48.43.9.75,1.26.32.36.7.64,1.15.85.45.21.94.32,1.48.32.72,0,1.33-.13,1.83-.4.5-.26.99-.62,1.49-1.08l1.76,1.78c-.32.35-.66.66-1.01.94Z"/><path class="cls-1" d="m482.76,343.53v-12.6h2.77v10.1h6.28v2.5h-9.05Z"/><path class="cls-1" d="m508.98,340.54c-.26.71-.63,1.3-1.11,1.77-.48.47-1.06.83-1.75,1.06-.68.23-1.45.35-2.29.35-1.69,0-3.02-.47-4-1.4-.97-.94-1.46-2.33-1.46-4.19v-7.2h2.77v7.13c0,1.03.24,1.81.72,2.33.48.52,1.15.78,2,.78s1.52-.25,2-.76c.48-.5.72-1.26.72-2.27v-7.22h2.77v7.11c0,.96-.13,1.79-.39,2.5Z"/><path class="cls-1" d="m527.23,341.58c-.22.43-.54.79-.95,1.08s-.91.5-1.49.65c-.58.14-1.22.22-1.93.22h-5.98v-12.6h5.84c1.29,0,2.31.29,3.04.88.74.59,1.11,1.38,1.11,2.38v.04c0,.36-.04.68-.13.95-.09.28-.21.52-.36.75-.15.22-.32.42-.52.59-.2.17-.41.31-.63.43.73.28,1.3.65,1.72,1.12.42.47.63,1.13.63,1.97v.04c0,.58-.11,1.08-.33,1.51Zm-3.11-6.93c0-.42-.16-.74-.47-.96s-.76-.33-1.35-.33h-2.74v2.66h2.56c.61,0,1.1-.11,1.46-.32.36-.21.54-.55.54-1.02v-.04Zm.7,5.04c0-.42-.16-.75-.49-1-.32-.25-.85-.37-1.57-.37h-3.2v2.77h3.29c.61,0,1.09-.11,1.44-.33.35-.22.52-.57.52-1.04v-.04Z"/></svg>