<?xml version="1.0" standalone="no"?>
<!DOCTYPE svg PUBLIC "-//W3C//DTD SVG 20010904//EN"
 "http://www.w3.org/TR/2001/REC-SVG-20010904/DTD/svg10.dtd">
<svg version="1.0" xmlns="http://www.w3.org/2000/svg"
 width="512.000000pt" height="512.000000pt" viewBox="0 0 512.000000 512.000000"
 preserveAspectRatio="xMidYMid meet">

<g transform="translate(0.000000,512.000000) scale(0.100000,-0.100000)"
fill="#000000" stroke="none">
<path d="M578 4413 c-34 -5 -78 -56 -78 -89 0 -40 27 -81 61 -93 18 -6 61 -11
95 -11 l64 0 0 -515 c0 -576 0 -573 65 -600 31 -14 39 -14 70 0 49 20 65 62
65 170 l0 85 210 0 210 0 0 -100 c0 -95 1 -101 28 -129 40 -44 95 -45 136 -5
l26 27 0 532 0 533 85 3 c76 4 87 7 112 31 32 32 36 82 10 121 -25 38 -82 50
-221 45 l-119 -4 -28 -32 -29 -32 0 -185 0 -185 -210 0 -210 0 0 173 c0 253
-11 267 -210 265 -58 -1 -117 -3 -132 -5z m762 -743 l0 -110 -210 0 -210 0 0
110 0 110 210 0 210 0 0 -110z"/>
<path d="M151 3965 c-53 -16 -107 -66 -132 -120 -18 -38 -19 -99 -19 -1495 0
-985 3 -1467 11 -1493 13 -47 60 -102 113 -130 l41 -22 2395 0 2395 0 41 22
c53 28 100 83 113 130 7 26 11 508 11 1491 0 1614 5 1490 -68 1565 -69 71 35
67 -1652 67 -1056 0 -1526 -3 -1548 -11 -86 -30 -82 -154 7 -179 23 -6 558
-10 1547 -10 1369 0 1512 -1 1518 -16 8 -20 8 -2828 0 -2848 -6 -15 -223 -16
-2364 -16 -2141 0 -2358 1 -2364 16 -8 20 -8 2828 0 2848 5 13 24 16 105 16
144 0 189 24 189 100 0 77 -45 100 -192 99 -57 0 -123 -6 -147 -14z"/>
<path d="M3775 3396 c-104 -20 -169 -41 -390 -123 -280 -105 -365 -126 -487
-120 -107 6 -161 25 -259 92 -44 30 -60 36 -88 31 -41 -6 -77 -38 -84 -74 -9
-49 16 -86 97 -140 181 -121 397 -137 666 -50 36 11 149 51 251 89 243 90 322
111 434 112 112 2 178 -17 270 -78 85 -55 123 -59 166 -16 45 45 41 93 -11
141 -47 43 -134 92 -217 121 -75 27 -249 34 -348 15z"/>
<path d="M2055 2835 c-103 -19 -167 -39 -404 -127 -280 -104 -357 -122 -483
-115 -107 6 -162 25 -257 91 -59 40 -78 43 -121 21 -35 -18 -50 -43 -50 -84 0
-83 184 -195 366 -222 150 -23 291 8 649 140 258 95 270 99 383 110 149 16
240 -11 372 -111 76 -58 182 -110 260 -129 30 -7 102 -13 160 -12 136 1 242
27 521 131 261 97 311 111 414 122 129 13 217 -8 328 -80 79 -51 123 -54 161
-9 41 48 36 93 -15 140 -55 51 -189 116 -274 134 -180 38 -319 11 -710 -134
-262 -98 -291 -105 -425 -106 -156 0 -178 8 -370 145 -136 96 -316 130 -505
95z"/>
<path d="M2060 2275 c-111 -21 -178 -42 -390 -121 -306 -114 -324 -119 -470
-119 -116 0 -129 2 -185 28 -32 15 -74 39 -92 53 -67 51 -116 52 -162 3 -24
-25 -27 -65 -9 -104 18 -39 151 -122 241 -150 198 -63 347 -42 732 102 302
114 318 118 470 118 152 0 178 -9 310 -104 135 -98 221 -132 370 -146 136 -13
269 18 608 144 247 92 324 111 442 111 103 0 182 -24 264 -79 31 -21 67 -41
80 -44 33 -8 85 18 100 49 26 58 7 100 -70 154 -81 56 -154 88 -244 105 -175
34 -316 8 -650 -117 -274 -104 -328 -119 -446 -125 -146 -8 -210 12 -340 104
-52 38 -123 81 -157 96 -120 54 -262 69 -402 42z"/>
<path d="M2060 1714 c-102 -18 -182 -43 -410 -129 -278 -103 -323 -115 -456
-116 -97 -1 -184 26 -266 82 -32 21 -71 40 -87 41 -75 6 -122 -66 -89 -137 15
-33 139 -116 215 -145 92 -35 215 -46 325 -31 122 17 212 44 458 136 238 89
337 115 440 115 131 0 196 -24 325 -118 140 -103 242 -136 410 -136 150 0 241
23 527 130 302 114 322 119 468 119 116 0 129 -2 185 -28 32 -15 74 -39 91
-52 69 -53 134 -52 168 0 39 59 11 115 -88 179 -129 84 -295 120 -451 96 -118
-18 -206 -44 -441 -131 -257 -96 -341 -118 -448 -120 -139 -1 -189 16 -323
113 -184 132 -344 170 -553 132z"/>
</g>
</svg>
